<?xml version="1.0" encoding="UTF-8" standalone="no"?>
<svg
   xmlns:dc="http://purl.org/dc/elements/1.1/"
   xmlns:cc="http://creativecommons.org/ns#"
   xmlns:rdf="http://www.w3.org/1999/02/22-rdf-syntax-ns#"
   xmlns:svg="http://www.w3.org/2000/svg"
   xmlns="http://www.w3.org/2000/svg"
   xmlns:xlink="http://www.w3.org/1999/xlink"
   xmlns:sodipodi="http://sodipodi.sourceforge.net/DTD/sodipodi-0.dtd"
   xmlns:inkscape="http://www.inkscape.org/namespaces/inkscape"
   inkscape:export-ydpi="96"
   inkscape:export-xdpi="96"
   inkscape:export-filename="osm.jpg"
   sodipodi:docname="Black_tools_icon.svg"
   inkscape:version="1.0 (4035a4fb49, 2020-05-01)"
   xml:space="preserve"
   id="svg18630"
   version="1.1"
   viewBox="0 0 1429.3087 1341.8413"
   height="1341.8411mm"
   width="1429.3087mm"><metadata
     id="metadata1057"><rdf:RDF><cc:Work
         rdf:about=""><dc:format>image/svg+xml</dc:format><dc:type
           rdf:resource="http://purl.org/dc/dcmitype/StillImage" /><dc:title></dc:title></cc:Work></rdf:RDF></metadata><sodipodi:namedview
     fit-margin-bottom="0"
     fit-margin-right="0"
     fit-margin-left="0"
     fit-margin-top="0"
     inkscape:document-rotation="0"
     inkscape:current-layer="g7131"
     inkscape:window-maximized="1"
     inkscape:window-y="-8"
     inkscape:window-x="-8"
     inkscape:window-height="1377"
     inkscape:window-width="3440"
     inkscape:cy="2456.1824"
     inkscape:cx="3158.5696"
     inkscape:zoom="0.15867891"
     showgrid="false"
     inkscape:document-units="mm"
     inkscape:deskcolor="#d1d1d1"
     inkscape:pagecheckerboard="1"
     inkscape:pageopacity="0"
     inkscape:showpageshadow="0"
     borderopacity="1"
     bordercolor="#111111"
     pagecolor="#ffffff"
     id="namedview18632" /><defs
     id="defs18627"><linearGradient
       id="linearGradient28964"><stop
         style="stop-color:#000000;stop-opacity:1;"
         id="stop28960"
         offset="0" /><stop
         id="stop28962"
         stop-opacity="0"
         offset="1" /></linearGradient><linearGradient
       id="c"><stop
         id="stop26717"
         stop-color="#2d3335"
         offset="0" /><stop
         id="stop26719"
         stop-color="#4c464a"
         offset=".5" /><stop
         id="stop26721"
         stop-color="#384042"
         offset="1" /></linearGradient><linearGradient
       id="a"><stop
         id="stop26724"
         offset="0" /><stop
         id="stop26726"
         stop-opacity="0"
         offset="1" /></linearGradient><linearGradient
       gradientUnits="userSpaceOnUse"
       y2="-179.97"
       y1="-94.671997"
       x2="9"
       x1="94.25"
       id="y"
       xlink:href="#a" /><linearGradient
       gradientUnits="userSpaceOnUse"
       y2="-30.438"
       y1="-114.44"
       x2="35.75"
       x1="50.75"
       id="z"
       xlink:href="#a" /><linearGradient
       gradientUnits="userSpaceOnUse"
       y2="-74.625"
       y1="-163.12"
       x2="115.25"
       x1="77.625"
       id="A"
       xlink:href="#a" /><linearGradient
       gradientUnits="userSpaceOnUse"
       y2="7.0625"
       y1="-50.438"
       x2="125.72"
       x1="56.5"
       id="B"
       xlink:href="#a" /><linearGradient
       gradientUnits="userSpaceOnUse"
       y2="-146.8"
       y1="-163.3"
       x2="180.75"
       x1="35"
       id="C"
       xlink:href="#a" /><linearGradient
       gradientUnits="userSpaceOnUse"
       y2="-41.609001"
       y1="-141.11"
       x2="179"
       x1="57"
       id="D"
       xlink:href="#a" /><linearGradient
       gradientUnits="userSpaceOnUse"
       y2="39.75"
       y1="-26.5"
       x2="208.25"
       x1="156"
       id="E"
       xlink:href="#a" /><linearGradient
       gradientUnits="userSpaceOnUse"
       y2="-77.296997"
       y1="-169.3"
       x2="235"
       x1="142.75"
       id="F"
       xlink:href="#a" /><linearGradient
       gradientUnits="userSpaceOnUse"
       y2="-113.72"
       y1="-161.36"
       x2="166.5"
       x1="214.25"
       id="q"
       xlink:href="#b" /><linearGradient
       id="b"><stop
         id="stop26738"
         stop-color="#fff"
         offset="0" /><stop
         id="stop26740"
         stop-opacity="0"
         stop-color="#fff"
         offset="1" /></linearGradient><linearGradient
       gradientUnits="userSpaceOnUse"
       y2="-62.469002"
       y1="-126.5"
       x2="57.655998"
       x1="53.25"
       id="r"
       xlink:href="#b" /><linearGradient
       gradientUnits="userSpaceOnUse"
       y2="-17.125"
       y1="6.625"
       x2="75.719002"
       x1="39.5"
       id="s"
       xlink:href="#b" /><linearGradient
       gradientUnits="userSpaceOnUse"
       y2="-121.44"
       y1="-162.34"
       x2="85.311996"
       x1="102"
       id="t"
       xlink:href="#b" /><linearGradient
       gradientUnits="userSpaceOnUse"
       y2="-14.75"
       y1="-78.094002"
       x2="63.5"
       x1="117.75"
       id="u"
       xlink:href="#b" /><linearGradient
       gradientUnits="userSpaceOnUse"
       y2="-60.75"
       y1="-125.12"
       x2="133.94"
       x1="180.69"
       id="v"
       xlink:href="#b" /><linearGradient
       gradientUnits="userSpaceOnUse"
       y2="33.375"
       y1="-23.5"
       x2="130.22"
       x1="170.75"
       id="w"
       xlink:href="#b" /><linearGradient
       gradientUnits="userSpaceOnUse"
       y2="-5.6563001"
       y1="-76"
       x2="181.75"
       x1="213.5"
       id="x"
       xlink:href="#b" /><linearGradient
       gradientUnits="userSpaceOnUse"
       gradientTransform="matrix(0.42123854,0.42123854,-0.42123854,0.42123854,-136.08502,2.1615483)"
       y2="186.5"
       y1="186.5"
       x2="136"
       x1="120"
       id="I"><stop
         id="stop26750"
         stop-color="#f9e295"
         offset="0" /><stop
         id="stop26752"
         stop-color="#f7dd84"
         offset=".125" /><stop
         id="stop26754"
         stop-color="#fff"
         offset=".20581" /><stop
         id="stop26756"
         stop-color="#f4ce51"
         offset=".30113" /><stop
         id="stop26758"
         stop-color="#f9e7aa"
         offset=".3412" /><stop
         id="stop26760"
         stop-color="#efbb0e"
         offset="1" /></linearGradient><linearGradient
       gradientUnits="userSpaceOnUse"
       gradientTransform="matrix(-0.84245967,-0.84245967,-0.74556669,0.74556669,90.395995,99.193567)"
       y2="150.38"
       y1="150.38"
       x2="133"
       x1="123"
       id="N"><stop
         id="stop26763"
         stop-color="#2d3335"
         offset="0" /><stop
         id="stop26765"
         stop-color="#4c464a"
         offset=".5" /><stop
         id="stop26767"
         stop-color="#384042"
         offset="1" /></linearGradient><linearGradient
       gradientUnits="userSpaceOnUse"
       gradientTransform="matrix(0.42123854,0.42123854,-0.42123854,0.42123854,-107.86125,-26.06055)"
       y2="186.5"
       y1="186.5"
       x2="136"
       x1="120"
       id="M"><stop
         id="stop26770"
         stop-color="#f9e295"
         offset="0" /><stop
         id="stop26772"
         stop-color="#f7dd84"
         offset=".125" /><stop
         id="stop26774"
         stop-color="#fff"
         offset=".20581" /><stop
         id="stop26776"
         stop-color="#f4ce51"
         offset=".30113" /><stop
         id="stop26778"
         stop-color="#f9e7aa"
         offset=".3412" /><stop
         id="stop26780"
         stop-color="#efbb0e"
         offset="1" /></linearGradient><linearGradient
       gradientUnits="userSpaceOnUse"
       gradientTransform="matrix(-0.42123961,-0.42123961,-0.42123961,0.42123961,-0.02556847,81.77518)"
       y2="150.38"
       y1="150.38"
       x2="133"
       x1="123"
       id="L"
       xlink:href="#c" /><linearGradient
       gradientUnits="userSpaceOnUse"
       gradientTransform="matrix(0.42123854,0.42123854,-0.42123854,0.42123854,-107.86125,-26.06055)"
       y2="143.36"
       y1="134.36"
       x2="130.88"
       x1="128"
       id="K"
       xlink:href="#c" /><linearGradient
       gradientUnits="userSpaceOnUse"
       gradientTransform="matrix(-0.84245967,-0.84245967,-0.74556669,0.74556669,90.395995,99.193567)"
       y2="150.38"
       y1="167.73"
       x2="133"
       x1="108"
       id="O"
       xlink:href="#linearGradient28964" /><linearGradient
       gradientUnits="userSpaceOnUse"
       gradientTransform="matrix(0.42796924,0,0,0.42796924,-164.7556,23.224564)"
       y2="137.2"
       y1="29.815001"
       x2="179.96001"
       x1="126.64"
       id="P"><stop
         id="stop26786"
         stop-color="#fff"
         offset="0" /><stop
         id="stop26788"
         stop-opacity="0"
         stop-color="#fff"
         offset="1" /></linearGradient><linearGradient
       gradientUnits="userSpaceOnUse"
       gradientTransform="matrix(-0.21524551,0.08490964,0.08439649,-0.18511612,-46.567328,80.324361)"
       y2="137.2"
       y1="29.815001"
       x2="179.96001"
       x1="126.64"
       id="S"><stop
         id="stop26791"
         stop-color="#fff"
         offset="0" /><stop
         id="stop26793"
         stop-opacity="0"
         stop-color="#fff"
         offset="1" /></linearGradient><linearGradient
       gradientUnits="userSpaceOnUse"
       gradientTransform="translate(0,192)"
       y2="-213.25"
       y1="72.064003"
       x2="9"
       x1="210.17"
       id="p"><stop
         id="stop26796"
         offset="0" /><stop
         id="stop26798"
         stop-opacity="0"
         offset="1" /></linearGradient><linearGradient
       gradientUnits="userSpaceOnUse"
       y2="4.302"
       y1="245.45"
       x2="122"
       x1="122"
       id="g"><stop
         id="stop26801"
         offset="0" /><stop
         id="stop26803"
         stop-opacity="0"
         offset="1" /></linearGradient><linearGradient
       gradientUnits="userSpaceOnUse"
       gradientTransform="matrix(1,-0.08088,0,1,0,203.06)"
       y2="-213.25"
       y1="72.064003"
       x2="9"
       x1="210.17"
       id="e"><stop
         id="stop26806"
         offset="0" /><stop
         id="stop26808"
         stop-opacity="0"
         offset="1" /></linearGradient><clipPath
       clipPathUnits="userSpaceOnUse"
       id="k"><path
         id="path26814"
         d="m 9,12.25 c 0,0 7.5,13 11.75,27.75 C 25,54.75 27,65.5 27,65.5 c 0,0 -5.5,12.75 -8.25,24.75 -2.75,12 -5.75,23 -5.75,23 0,0 5.75,16 9.25,30 3.5,14 3.75,24.25 3.75,24.25 0,0 -4,10.25 -7.5,24.25 -3.5,14 -5,30.75 -5,30.75 0,0 9.25,-2 28.5,1.25 19.25,3.25 32.25,6 32.25,6 0,0 12.75,-2.75 24,-6.25 11.25,-3.5 16.25,-6.5 16.25,-6.5 0,0 5.5,0.5 22.5,6.25 17,5.75 29.25,8.5 29.25,8.5 0,0 13,-2.75 26,-5.75 13,-3 26.5,-8 26.5,-8 0,0 -0.75,-5 4.25,-24.5 5,-19.5 8.75,-28 8.75,-28 0,0 -0.5,-4.5 -3.75,-19.75 C 224.75,130.5 218,116 218,116 c 0,0 1.75,-10.5 6.75,-23.75 C 229.75,79 235,65.5 235,65.5 c 0,0 -4.75,-15.25 -7.5,-29.75 C 224.75,21.25 219.25,10 219.25,10 c 0,0 -24.25,9 -31.75,10.5 -7.5,1.5 -21,5.25 -21,5.25 0,0 -9.75,-4.25 -22,-8.5 -12.25,-4.25 -29.75,-5.5 -29.75,-5.5 0,0 -3.25,3.5 -22,8 -18.75,4.5 -27.5,5.75 -27.5,5.75 0,0 -18.5,-9 -31.5,-11.5 -13,-2.5 -24,-2 -24.75,-1.75 z"
         fill="#ceeeab" /></clipPath><clipPath
       clipPathUnits="userSpaceOnUse"
       id="m"><path
         id="path26820"
         d="m 9,12.25 c 0,0 7.5,13 11.75,27.75 C 25,54.75 27,65.5 27,65.5 c 0,0 -5.5,12.75 -8.25,24.75 -2.75,12 -5.75,23 -5.75,23 0,0 5.75,16 9.25,30 3.5,14 3.75,24.25 3.75,24.25 0,0 -4,10.25 -7.5,24.25 -3.5,14 -5,30.75 -5,30.75 0,0 9.25,-2 28.5,1.25 19.25,3.25 32.25,6 32.25,6 0,0 12.75,-2.75 24,-6.25 11.25,-3.5 16.25,-6.5 16.25,-6.5 0,0 5.5,0.5 22.5,6.25 17,5.75 29.25,8.5 29.25,8.5 0,0 13,-2.75 26,-5.75 13,-3 26.5,-8 26.5,-8 0,0 -0.75,-5 4.25,-24.5 5,-19.5 8.75,-28 8.75,-28 0,0 -0.5,-4.5 -3.75,-19.75 C 224.75,130.5 218,116 218,116 c 0,0 1.75,-10.5 6.75,-23.75 C 229.75,79 235,65.5 235,65.5 c 0,0 -4.75,-15.25 -7.5,-29.75 C 224.75,21.25 219.25,10 219.25,10 c 0,0 -24.25,9 -31.75,10.5 -7.5,1.5 -21,5.25 -21,5.25 0,0 -9.75,-4.25 -22,-8.5 -12.25,-4.25 -29.75,-5.5 -29.75,-5.5 0,0 -3.25,3.5 -22,8 -18.75,4.5 -27.5,5.75 -27.5,5.75 0,0 -18.5,-9 -31.5,-11.5 -13,-2.5 -24,-2 -24.75,-1.75 z"
         fill="#ceeeab" /></clipPath><clipPath
       clipPathUnits="userSpaceOnUse"
       id="n"><path
         id="path26823"
         d="m 9,12.25 c 0,0 7.5,13 11.75,27.75 C 25,54.75 27,65.5 27,65.5 c 0,0 -5.5,12.75 -8.25,24.75 -2.75,12 -5.75,23 -5.75,23 0,0 5.75,16 9.25,30 3.5,14 3.75,24.25 3.75,24.25 0,0 -4,10.25 -7.5,24.25 -3.5,14 -5,30.75 -5,30.75 0,0 9.25,-2 28.5,1.25 19.25,3.25 32.25,6 32.25,6 0,0 12.75,-2.75 24,-6.25 11.25,-3.5 16.25,-6.5 16.25,-6.5 0,0 5.5,0.5 22.5,6.25 17,5.75 29.25,8.5 29.25,8.5 0,0 13,-2.75 26,-5.75 13,-3 26.5,-8 26.5,-8 0,0 -0.75,-5 4.25,-24.5 5,-19.5 8.75,-28 8.75,-28 0,0 -0.5,-4.5 -3.75,-19.75 C 224.75,130.5 218,116 218,116 c 0,0 1.75,-10.5 6.75,-23.75 C 229.75,79 235,65.5 235,65.5 c 0,0 -4.75,-15.25 -7.5,-29.75 C 224.75,21.25 219.25,10 219.25,10 c 0,0 -24.25,9 -31.75,10.5 -7.5,1.5 -21,5.25 -21,5.25 0,0 -9.75,-4.25 -22,-8.5 -12.25,-4.25 -29.75,-5.5 -29.75,-5.5 0,0 -3.25,3.5 -22,8 -18.75,4.5 -27.5,5.75 -27.5,5.75 0,0 -18.5,-9 -31.5,-11.5 -13,-2.5 -24,-2 -24.75,-1.75 z"
         fill="#ceeeab" /></clipPath><clipPath
       clipPathUnits="userSpaceOnUse"
       id="o"><path
         id="path26826"
         d="m 9,12.25 c 0,0 7.5,13 11.75,27.75 C 25,54.75 27,65.5 27,65.5 c 0,0 -5.5,12.75 -8.25,24.75 -2.75,12 -5.75,23 -5.75,23 0,0 5.75,16 9.25,30 3.5,14 3.75,24.25 3.75,24.25 0,0 -4,10.25 -7.5,24.25 -3.5,14 -5,30.75 -5,30.75 0,0 9.25,-2 28.5,1.25 19.25,3.25 32.25,6 32.25,6 0,0 12.75,-2.75 24,-6.25 11.25,-3.5 16.25,-6.5 16.25,-6.5 0,0 5.5,0.5 22.5,6.25 17,5.75 29.25,8.5 29.25,8.5 0,0 13,-2.75 26,-5.75 13,-3 26.5,-8 26.5,-8 0,0 -0.75,-5 4.25,-24.5 5,-19.5 8.75,-28 8.75,-28 0,0 -0.5,-4.5 -3.75,-19.75 C 224.75,130.5 218,116 218,116 c 0,0 1.75,-10.5 6.75,-23.75 C 229.75,79 235,65.5 235,65.5 c 0,0 -4.75,-15.25 -7.5,-29.75 C 224.75,21.25 219.25,10 219.25,10 c 0,0 -24.25,9 -31.75,10.5 -7.5,1.5 -21,5.25 -21,5.25 0,0 -9.75,-4.25 -22,-8.5 -12.25,-4.25 -29.75,-5.5 -29.75,-5.5 0,0 -3.25,3.5 -22,8 -18.75,4.5 -27.5,5.75 -27.5,5.75 0,0 -18.5,-9 -31.5,-11.5 -13,-2.5 -24,-2 -24.75,-1.75 z"
         fill="#ceeeab" /></clipPath><clipPath
       clipPathUnits="userSpaceOnUse"
       id="l"><path
         id="path26829"
         d="m 123.62,141.06 c 20.832,20.243 54.607,19.289 75.439,-2.132 20.832,-21.421 20.832,-55.196 0,-75.439 -20.832,-20.243 -54.607,-19.289 -75.439,2.132 -20.832,21.421 -20.832,55.196 0,75.439 z"
         fill="url(#d)" /></clipPath><clipPath
       clipPathUnits="userSpaceOnUse"
       id="G"><path
         id="path26832"
         opacity="0.03913"
         d="m 9,22.578 c 0,0 7.5,12.393 11.75,26.8 C 25,63.784 27,74.373 27,74.373 c 0,0 -5.5,13.195 -8.25,25.417 C 16,112.01 13,123.25 13,123.25 c 0,0 5.75,15.535 9.25,29.252 3.5,13.717 3.75,23.947 3.75,23.947 0,0 -4,10.574 -7.5,24.857 -3.5,14.283 -5,31.154 -5,31.154 0,0 9.25,-2.7481 28.5,-1.055 19.25,1.6931 32.25,3.3917 32.25,3.3917 0,0 12.75,-3.7812 24,-8.1911 11.25,-4.4099 16.25,-7.8143 16.25,-7.8143 0,0 5.5,0.0552 22.5,4.4302 17,4.3751 29.25,6.1343 29.25,6.1343 0,0 13,-3.8014 26,-7.8528 13,-4.0514 26.5,-10.143 26.5,-10.143 0,0 -0.75,-4.9393 4.25,-24.844 5,-19.904 8.75,-28.708 8.75,-28.708 0,0 -0.5145,-4.4553 -3.75,-19.447 -1.75,-8.1085 -2.25,-4.068 -2.25,-4.068 0,0 16.264,-26.155 16.5,-40.334 C 242.5,78.939 235,57.546 235,57.546 c 0,0 -4.75,-14.866 -7.5,-29.143 -2.75,-14.278 -8.25,-25.083 -8.25,-25.083 0,0 -24.25,10.961 -31.75,13.068 -7.5,2.1066 -21,6.9484 -21,6.9484 0,0 -9.75,-3.4614 -22,-6.7207 -12.25,-3.2592 -29.75,-3.0939 -29.75,-3.0939 0,0 -3.25,3.7629 -22,9.7793 -18.75,6.0165 -27.5,7.9741 -27.5,7.9741 0,0 -18.5,-7.5038 -31.5,-8.9524 -13,-1.4486 -24,-0.05894 -24.75,0.25172 z"
         fill="url(#e)" /></clipPath><radialGradient
       gradientUnits="userSpaceOnUse"
       gradientTransform="matrix(0.43019779,0.43019779,0.43019779,-0.43019779,-182.23305,46.015265)"
       r="47"
       cy="86"
       cx="128"
       id="J"><stop
         id="stop26835"
         stop-opacity="0"
         stop-color="#d0e9f2"
         offset="0" /><stop
         id="stop26837"
         stop-opacity="0"
         stop-color="#d0e9f2"
         offset=".83933" /><stop
         id="stop26839"
         stop-opacity=".28185"
         stop-color="#d0e9f2"
         offset=".94309" /><stop
         id="stop26841"
         stop-color="#d0e9f2"
         offset="1" /></radialGradient><radialGradient
       gradientUnits="userSpaceOnUse"
       gradientTransform="matrix(0.51891453,0,0,0.3591286,-186.86257,12.180879)"
       r="38.417"
       cy="72.587997"
       cx="159.61"
       id="R"><stop
         id="stop26844"
         stop-color="#fff"
         offset="0" /><stop
         id="stop26846"
         stop-opacity=".9305"
         stop-color="#fff"
         offset=".5" /><stop
         id="stop26848"
         stop-opacity="0"
         stop-color="#fff"
         offset="1" /></radialGradient><radialGradient
       gradientUnits="userSpaceOnUse"
       gradientTransform="matrix(0.51891453,0,0,0.3591286,-186.67939,12.731247)"
       r="38.417"
       cy="72.587997"
       cx="159.61"
       id="Q"><stop
         id="stop26851"
         stop-color="#fff"
         offset="0" /><stop
         id="stop26853"
         stop-opacity="0"
         stop-color="#fff"
         offset="1" /></radialGradient><radialGradient
       gradientUnits="userSpaceOnUse"
       gradientTransform="matrix(0.80254,0.77986,0.80254,-0.82522,-10.402,73.423)"
       r="47"
       cy="86"
       cx="128"
       id="d"><stop
         id="stop26856"
         stop-opacity="0"
         stop-color="#d0e9f2"
         offset="0" /><stop
         id="stop26858"
         stop-opacity="0"
         stop-color="#d0e9f2"
         offset=".83933" /><stop
         id="stop26860"
         stop-opacity=".28185"
         stop-color="#d0e9f2"
         offset=".94309" /><stop
         id="stop26862"
         stop-color="#d0e9f2"
         offset="1" /></radialGradient><filter
       height="1.096"
       width="1.0959994"
       y="-0.047999926"
       x="-0.047999725"
       id="H"><feGaussianBlur
         id="feGaussianBlur26865"
         stdDeviation="4.2868936" /></filter><filter
       height="1.1413265"
       width="1.141326"
       y="-0.070663318"
       x="-0.07066302"
       id="f"><feGaussianBlur
         id="feGaussianBlur26868"
         stdDeviation="6.3109704" /></filter><filter
       height="1.0973651"
       width="1.0946726"
       y="-0.048682593"
       x="-0.047336284"
       id="h"><feGaussianBlur
         id="feGaussianBlur26871"
         stdDeviation="4.4575" /></filter><clipPath
       id="clipPath27401"
       clipPathUnits="userSpaceOnUse"><g
         id="g27405"><path
           style="stroke-width:0.427969"
           id="path27403"
           d="m -160.90388,28.467197 c 0,0 3.20977,5.5636 5.02864,11.876147 1.81887,6.312546 2.67481,10.913215 2.67481,10.913215 0,0 -2.35383,5.456608 -3.53075,10.592239 -1.17691,5.135631 -2.46082,9.843292 -2.46082,9.843292 0,0 2.46082,6.847508 3.95872,12.839078 1.49789,5.991569 1.60488,10.378254 1.60488,10.378254 0,0 -1.71188,4.386684 -3.20977,10.378258 -1.49789,5.99157 -2.13985,13.16005 -2.13985,13.16005 0,0 3.95872,-0.85594 12.19713,0.53496 8.23841,1.3909 13.80201,2.56782 13.80201,2.56782 0,0 5.4566,-1.17692 10.27126,-2.67481 4.81465,-1.49789 6.9545,-2.7818 6.9545,-2.7818 0,0 2.35383,0.21398 9.62931,2.67481 7.275473,2.46082 12.518096,3.63774 12.518096,3.63774 0,0 5.5636,-1.17692 11.1272,-2.46083 5.563601,-1.28391 11.341185,-3.42375 11.341185,-3.42375 0,0 -0.320977,-2.13985 1.81887,-10.48525 2.139846,-8.345398 3.74473,-11.983137 3.74473,-11.983137 0,0 -0.213984,-1.925861 -1.604884,-8.452392 -1.3909,-6.526531 -4.279693,-12.732085 -4.279693,-12.732085 0,0 0.748946,-4.493677 2.888793,-10.16427 2.139846,-5.670592 4.386684,-11.448177 4.386684,-11.448177 0,0 -2.032853,-6.526531 -3.209769,-12.732085 -1.176915,-6.205554 -3.530746,-11.020208 -3.530746,-11.020208 0,0 -10.378254,3.851724 -13.588023,4.493677 -3.20977,0.641954 -8.987355,2.246839 -8.987355,2.246839 0,0 -4.1727,-1.818869 -9.415318,-3.637739 -5.24263,-1.818869 -12.73209,-2.35383 -12.73209,-2.35383 0,0 -1.3909,1.497892 -9.41532,3.423753 -8.02443,1.925862 -11.76916,2.460824 -11.76916,2.460824 0,0 -7.91743,-3.851724 -13.48103,-4.921647 -5.5636,-1.069923 -10.27126,-0.855938 -10.59224,-0.748946 z"
           fill="#ceeeab" /></g></clipPath><clipPath
       id="clipPath28936"
       clipPathUnits="userSpaceOnUse"><g
         id="g28940"><path
           style="stroke-width:0.427969"
           id="path28938"
           d="m -160.90388,28.467197 c 0,0 3.20977,5.5636 5.02864,11.876147 1.81887,6.312546 2.67481,10.913215 2.67481,10.913215 0,0 -2.35383,5.456608 -3.53075,10.592239 -1.17691,5.135631 -2.46082,9.843292 -2.46082,9.843292 0,0 2.46082,6.847508 3.95872,12.839078 1.49789,5.991569 1.60488,10.378254 1.60488,10.378254 0,0 -1.71188,4.386684 -3.20977,10.378258 -1.49789,5.99157 -2.13985,13.16005 -2.13985,13.16005 0,0 3.95872,-0.85594 12.19713,0.53496 8.23841,1.3909 13.80201,2.56782 13.80201,2.56782 0,0 5.4566,-1.17692 10.27126,-2.67481 4.81465,-1.49789 6.9545,-2.7818 6.9545,-2.7818 0,0 2.35383,0.21398 9.62931,2.67481 7.275473,2.46082 12.518096,3.63774 12.518096,3.63774 0,0 5.5636,-1.17692 11.1272,-2.46083 5.563601,-1.28391 11.341185,-3.42375 11.341185,-3.42375 0,0 -0.320977,-2.13985 1.81887,-10.48525 2.139846,-8.345398 3.74473,-11.983137 3.74473,-11.983137 0,0 -0.213984,-1.925861 -1.604884,-8.452392 -1.3909,-6.526531 -4.279693,-12.732085 -4.279693,-12.732085 0,0 0.748946,-4.493677 2.888793,-10.16427 2.139846,-5.670592 4.386684,-11.448177 4.386684,-11.448177 0,0 -2.032853,-6.526531 -3.209769,-12.732085 -1.176915,-6.205554 -3.530746,-11.020208 -3.530746,-11.020208 0,0 -10.378254,3.851724 -13.588023,4.493677 -3.20977,0.641954 -8.987355,2.246839 -8.987355,2.246839 0,0 -4.1727,-1.818869 -9.415318,-3.637739 -5.24263,-1.818869 -12.73209,-2.35383 -12.73209,-2.35383 0,0 -1.3909,1.497892 -9.41532,3.423753 -8.02443,1.925862 -11.76916,2.460824 -11.76916,2.460824 0,0 -7.91743,-3.851724 -13.48103,-4.921647 -5.5636,-1.069923 -10.27126,-0.855938 -10.59224,-0.748946 z"
           fill="#ceeeab" /></g></clipPath><clipPath
       id="clipPath28942"
       clipPathUnits="userSpaceOnUse"><g
         id="g28946"><path
           style="stroke-width:0.427969"
           id="path28944"
           d="m -160.90388,28.467197 c 0,0 3.20977,5.5636 5.02864,11.876147 1.81887,6.312546 2.67481,10.913215 2.67481,10.913215 0,0 -2.35383,5.456608 -3.53075,10.592239 -1.17691,5.135631 -2.46082,9.843292 -2.46082,9.843292 0,0 2.46082,6.847508 3.95872,12.839078 1.49789,5.991569 1.60488,10.378254 1.60488,10.378254 0,0 -1.71188,4.386684 -3.20977,10.378258 -1.49789,5.99157 -2.13985,13.16005 -2.13985,13.16005 0,0 3.95872,-0.85594 12.19713,0.53496 8.23841,1.3909 13.80201,2.56782 13.80201,2.56782 0,0 5.4566,-1.17692 10.27126,-2.67481 4.81465,-1.49789 6.9545,-2.7818 6.9545,-2.7818 0,0 2.35383,0.21398 9.62931,2.67481 7.275473,2.46082 12.518096,3.63774 12.518096,3.63774 0,0 5.5636,-1.17692 11.1272,-2.46083 5.563601,-1.28391 11.341185,-3.42375 11.341185,-3.42375 0,0 -0.320977,-2.13985 1.81887,-10.48525 2.139846,-8.345398 3.74473,-11.983137 3.74473,-11.983137 0,0 -0.213984,-1.925861 -1.604884,-8.452392 -1.3909,-6.526531 -4.279693,-12.732085 -4.279693,-12.732085 0,0 0.748946,-4.493677 2.888793,-10.16427 2.139846,-5.670592 4.386684,-11.448177 4.386684,-11.448177 0,0 -2.032853,-6.526531 -3.209769,-12.732085 -1.176915,-6.205554 -3.530746,-11.020208 -3.530746,-11.020208 0,0 -10.378254,3.851724 -13.588023,4.493677 -3.20977,0.641954 -8.987355,2.246839 -8.987355,2.246839 0,0 -4.1727,-1.818869 -9.415318,-3.637739 -5.24263,-1.818869 -12.73209,-2.35383 -12.73209,-2.35383 0,0 -1.3909,1.497892 -9.41532,3.423753 -8.02443,1.925862 -11.76916,2.460824 -11.76916,2.460824 0,0 -7.91743,-3.851724 -13.48103,-4.921647 -5.5636,-1.069923 -10.27126,-0.855938 -10.59224,-0.748946 z"
           fill="#ceeeab" /></g></clipPath><clipPath
       id="clipPath28948"
       clipPathUnits="userSpaceOnUse"><g
         id="g28952"><path
           style="stroke-width:0.427969"
           id="path28950"
           d="m -160.90388,28.467197 c 0,0 3.20977,5.5636 5.02864,11.876147 1.81887,6.312546 2.67481,10.913215 2.67481,10.913215 0,0 -2.35383,5.456608 -3.53075,10.592239 -1.17691,5.135631 -2.46082,9.843292 -2.46082,9.843292 0,0 2.46082,6.847508 3.95872,12.839078 1.49789,5.991569 1.60488,10.378254 1.60488,10.378254 0,0 -1.71188,4.386684 -3.20977,10.378258 -1.49789,5.99157 -2.13985,13.16005 -2.13985,13.16005 0,0 3.95872,-0.85594 12.19713,0.53496 8.23841,1.3909 13.80201,2.56782 13.80201,2.56782 0,0 5.4566,-1.17692 10.27126,-2.67481 4.81465,-1.49789 6.9545,-2.7818 6.9545,-2.7818 0,0 2.35383,0.21398 9.62931,2.67481 7.275473,2.46082 12.518096,3.63774 12.518096,3.63774 0,0 5.5636,-1.17692 11.1272,-2.46083 5.563601,-1.28391 11.341185,-3.42375 11.341185,-3.42375 0,0 -0.320977,-2.13985 1.81887,-10.48525 2.139846,-8.345398 3.74473,-11.983137 3.74473,-11.983137 0,0 -0.213984,-1.925861 -1.604884,-8.452392 -1.3909,-6.526531 -4.279693,-12.732085 -4.279693,-12.732085 0,0 0.748946,-4.493677 2.888793,-10.16427 2.139846,-5.670592 4.386684,-11.448177 4.386684,-11.448177 0,0 -2.032853,-6.526531 -3.209769,-12.732085 -1.176915,-6.205554 -3.530746,-11.020208 -3.530746,-11.020208 0,0 -10.378254,3.851724 -13.588023,4.493677 -3.20977,0.641954 -8.987355,2.246839 -8.987355,2.246839 0,0 -4.1727,-1.818869 -9.415318,-3.637739 -5.24263,-1.818869 -12.73209,-2.35383 -12.73209,-2.35383 0,0 -1.3909,1.497892 -9.41532,3.423753 -8.02443,1.925862 -11.76916,2.460824 -11.76916,2.460824 0,0 -7.91743,-3.851724 -13.48103,-4.921647 -5.5636,-1.069923 -10.27126,-0.855938 -10.59224,-0.748946 z"
           fill="#ceeeab" /></g></clipPath><clipPath
       id="clipPath28954"
       clipPathUnits="userSpaceOnUse"><g
         id="g28958"><path
           style="stroke-width:0.427969"
           id="path28956"
           d="m -160.90388,28.467197 c 0,0 3.20977,5.5636 5.02864,11.876147 1.81887,6.312546 2.67481,10.913215 2.67481,10.913215 0,0 -2.35383,5.456608 -3.53075,10.592239 -1.17691,5.135631 -2.46082,9.843292 -2.46082,9.843292 0,0 2.46082,6.847508 3.95872,12.839078 1.49789,5.991569 1.60488,10.378254 1.60488,10.378254 0,0 -1.71188,4.386684 -3.20977,10.378258 -1.49789,5.99157 -2.13985,13.16005 -2.13985,13.16005 0,0 3.95872,-0.85594 12.19713,0.53496 8.23841,1.3909 13.80201,2.56782 13.80201,2.56782 0,0 5.4566,-1.17692 10.27126,-2.67481 4.81465,-1.49789 6.9545,-2.7818 6.9545,-2.7818 0,0 2.35383,0.21398 9.62931,2.67481 7.275473,2.46082 12.518096,3.63774 12.518096,3.63774 0,0 5.5636,-1.17692 11.1272,-2.46083 5.563601,-1.28391 11.341185,-3.42375 11.341185,-3.42375 0,0 -0.320977,-2.13985 1.81887,-10.48525 2.139846,-8.345398 3.74473,-11.983137 3.74473,-11.983137 0,0 -0.213984,-1.925861 -1.604884,-8.452392 -1.3909,-6.526531 -4.279693,-12.732085 -4.279693,-12.732085 0,0 0.748946,-4.493677 2.888793,-10.16427 2.139846,-5.670592 4.386684,-11.448177 4.386684,-11.448177 0,0 -2.032853,-6.526531 -3.209769,-12.732085 -1.176915,-6.205554 -3.530746,-11.020208 -3.530746,-11.020208 0,0 -10.378254,3.851724 -13.588023,4.493677 -3.20977,0.641954 -8.987355,2.246839 -8.987355,2.246839 0,0 -4.1727,-1.818869 -9.415318,-3.637739 -5.24263,-1.818869 -12.73209,-2.35383 -12.73209,-2.35383 0,0 -1.3909,1.497892 -9.41532,3.423753 -8.02443,1.925862 -11.76916,2.460824 -11.76916,2.460824 0,0 -7.91743,-3.851724 -13.48103,-4.921647 -5.5636,-1.069923 -10.27126,-0.855938 -10.59224,-0.748946 z"
           fill="#ceeeab" /></g></clipPath><linearGradient
       gradientUnits="userSpaceOnUse"
       y2="-179.97"
       y1="-94.671997"
       x2="9"
       x1="94.25"
       id="y-2"
       xlink:href="#linearGradient28964" /><linearGradient
       gradientUnits="userSpaceOnUse"
       y2="-30.438"
       y1="-114.44"
       x2="35.75"
       x1="50.75"
       id="z-6"
       xlink:href="#linearGradient28964" /><linearGradient
       gradientUnits="userSpaceOnUse"
       y2="-74.625"
       y1="-163.12"
       x2="115.25"
       x1="77.625"
       id="A-2"
       xlink:href="#linearGradient28964" /><linearGradient
       gradientUnits="userSpaceOnUse"
       y2="7.0625"
       y1="-50.438"
       x2="125.72"
       x1="56.5"
       id="B-3"
       xlink:href="#linearGradient28964" /><linearGradient
       gradientUnits="userSpaceOnUse"
       y2="-146.8"
       y1="-163.3"
       x2="180.75"
       x1="35"
       id="C-6"
       xlink:href="#linearGradient28964" /><linearGradient
       gradientUnits="userSpaceOnUse"
       y2="-41.609001"
       y1="-141.11"
       x2="179"
       x1="57"
       id="D-1"
       xlink:href="#linearGradient28964" /><linearGradient
       gradientUnits="userSpaceOnUse"
       y2="39.75"
       y1="-26.5"
       x2="208.25"
       x1="156"
       id="E-7"
       xlink:href="#linearGradient28964" /><linearGradient
       gradientUnits="userSpaceOnUse"
       y2="-77.296997"
       y1="-169.3"
       x2="235"
       x1="142.75"
       id="F-7"
       xlink:href="#linearGradient28964" /><linearGradient
       gradientUnits="userSpaceOnUse"
       y2="-113.72"
       y1="-161.36"
       x2="166.5"
       x1="214.25"
       id="q-3"
       xlink:href="#b" /><linearGradient
       gradientUnits="userSpaceOnUse"
       y2="-62.469002"
       y1="-126.5"
       x2="57.655998"
       x1="53.25"
       id="r-1"
       xlink:href="#b" /><linearGradient
       gradientUnits="userSpaceOnUse"
       y2="-17.125"
       y1="6.625"
       x2="75.719002"
       x1="39.5"
       id="s-5"
       xlink:href="#b" /><linearGradient
       gradientUnits="userSpaceOnUse"
       y2="-121.44"
       y1="-162.34"
       x2="85.311996"
       x1="102"
       id="t-3"
       xlink:href="#b" /><linearGradient
       gradientUnits="userSpaceOnUse"
       y2="-14.75"
       y1="-78.094002"
       x2="63.5"
       x1="117.75"
       id="u-8"
       xlink:href="#b" /><linearGradient
       gradientUnits="userSpaceOnUse"
       y2="-60.75"
       y1="-125.12"
       x2="133.94"
       x1="180.69"
       id="v-3"
       xlink:href="#b" /><linearGradient
       gradientUnits="userSpaceOnUse"
       y2="33.375"
       y1="-23.5"
       x2="130.22"
       x1="170.75"
       id="w-7"
       xlink:href="#b" /><linearGradient
       gradientUnits="userSpaceOnUse"
       y2="-5.6563001"
       y1="-76"
       x2="181.75"
       x1="213.5"
       id="x-9"
       xlink:href="#b" /><linearGradient
       gradientUnits="userSpaceOnUse"
       gradientTransform="matrix(0.46547249,0.46547249,-0.46547249,0.46547249,-276.88958,-2.7796422)"
       y2="186.5"
       y1="186.5"
       x2="136"
       x1="120"
       id="I-6"><stop
         id="stop32037"
         stop-color="#f9e295"
         offset="0" /><stop
         id="stop32039"
         stop-color="#f7dd84"
         offset=".125" /><stop
         id="stop32041"
         stop-color="#fff"
         offset=".20581" /><stop
         id="stop32043"
         stop-color="#f4ce51"
         offset=".30113" /><stop
         id="stop32045"
         stop-color="#f9e7aa"
         offset=".3412" /><stop
         id="stop32047"
         stop-color="#efbb0e"
         offset="1" /></linearGradient><linearGradient
       gradientUnits="userSpaceOnUse"
       gradientTransform="matrix(-0.93092574,-0.93092574,-0.8238581,0.8238581,-26.625963,104.44164)"
       y2="150.38"
       y1="150.38"
       x2="133"
       x1="123"
       id="N-5"><stop
         id="stop32050"
         stop-color="#2d3335"
         offset="0" /><stop
         id="stop32052"
         stop-color="#4c464a"
         offset=".5" /><stop
         id="stop32054"
         stop-color="#384042"
         offset="1" /></linearGradient><linearGradient
       gradientUnits="userSpaceOnUse"
       gradientTransform="matrix(0.46547249,0.46547249,-0.46547249,0.46547249,-245.70205,-33.965322)"
       y2="186.5"
       y1="186.5"
       x2="136"
       x1="120"
       id="M-8"><stop
         id="stop32057"
         stop-color="#f9e295"
         offset="0" /><stop
         id="stop32059"
         stop-color="#f7dd84"
         offset=".125" /><stop
         id="stop32061"
         stop-color="#fff"
         offset=".20581" /><stop
         id="stop32063"
         stop-color="#f4ce51"
         offset=".30113" /><stop
         id="stop32065"
         stop-color="#f9e7aa"
         offset=".3412" /><stop
         id="stop32067"
         stop-color="#efbb0e"
         offset="1" /></linearGradient><linearGradient
       gradientUnits="userSpaceOnUse"
       gradientTransform="matrix(-0.46547367,-0.46547367,-0.46547367,0.46547367,-126.54263,85.194158)"
       y2="150.38"
       y1="150.38"
       x2="133"
       x1="123"
       id="L-8"
       xlink:href="#c" /><linearGradient
       gradientUnits="userSpaceOnUse"
       gradientTransform="matrix(0.46547249,0.46547249,-0.46547249,0.46547249,-245.70205,-33.965322)"
       y2="143.36"
       y1="134.36"
       x2="130.88"
       x1="128"
       id="K-1"
       xlink:href="#c" /><linearGradient
       gradientUnits="userSpaceOnUse"
       gradientTransform="matrix(-0.93092574,-0.93092574,-0.8238581,0.8238581,-26.625963,104.44164)"
       y2="150.38"
       y1="167.73"
       x2="133"
       x1="108"
       id="O-4"
       xlink:href="#linearGradient28964" /><linearGradient
       gradientUnits="userSpaceOnUse"
       gradientTransform="matrix(0.47290997,0,0,0.47290997,-308.57084,20.495185)"
       y2="137.2"
       y1="29.815001"
       x2="179.96001"
       x1="126.64"
       id="P-7"><stop
         id="stop32073"
         stop-color="#fff"
         offset="0" /><stop
         id="stop32075"
         stop-opacity="0"
         stop-color="#fff"
         offset="1" /></linearGradient><linearGradient
       gradientUnits="userSpaceOnUse"
       gradientTransform="matrix(-0.23784828,0.09382594,0.0932589,-0.20455503,-177.9717,83.590989)"
       y2="137.2"
       y1="29.815001"
       x2="179.96001"
       x1="126.64"
       id="S-6"><stop
         id="stop32078"
         stop-color="#fff"
         offset="0" /><stop
         id="stop32080"
         stop-opacity="0"
         stop-color="#fff"
         offset="1" /></linearGradient><linearGradient
       gradientUnits="userSpaceOnUse"
       gradientTransform="translate(0,192)"
       y2="-213.25"
       y1="72.064003"
       x2="9"
       x1="210.17"
       id="p-2"><stop
         id="stop32083"
         offset="0" /><stop
         id="stop32085"
         stop-opacity="0"
         offset="1" /></linearGradient><linearGradient
       gradientUnits="userSpaceOnUse"
       y2="4.302"
       y1="245.45"
       x2="122"
       x1="122"
       id="g-3"><stop
         id="stop32088"
         offset="0" /><stop
         id="stop32090"
         stop-opacity="0"
         offset="1" /></linearGradient><clipPath
       clipPathUnits="userSpaceOnUse"
       id="j"><path
         id="path32098"
         d="m 9,12.25 c 0,0 7.5,13 11.75,27.75 C 25,54.75 27,65.5 27,65.5 c 0,0 -5.5,12.75 -8.25,24.75 -2.75,12 -5.75,23 -5.75,23 0,0 5.75,16 9.25,30 3.5,14 3.75,24.25 3.75,24.25 0,0 -4,10.25 -7.5,24.25 -3.5,14 -5,30.75 -5,30.75 0,0 9.25,-2 28.5,1.25 19.25,3.25 32.25,6 32.25,6 0,0 12.75,-2.75 24,-6.25 11.25,-3.5 16.25,-6.5 16.25,-6.5 0,0 5.5,0.5 22.5,6.25 17,5.75 29.25,8.5 29.25,8.5 0,0 13,-2.75 26,-5.75 13,-3 26.5,-8 26.5,-8 0,0 -0.75,-5 4.25,-24.5 5,-19.5 8.75,-28 8.75,-28 0,0 -0.5,-4.5 -3.75,-19.75 C 224.75,130.5 218,116 218,116 c 0,0 1.75,-10.5 6.75,-23.75 C 229.75,79 235,65.5 235,65.5 c 0,0 -4.75,-15.25 -7.5,-29.75 C 224.75,21.25 219.25,10 219.25,10 c 0,0 -24.25,9 -31.75,10.5 -7.5,1.5 -21,5.25 -21,5.25 0,0 -9.75,-4.25 -22,-8.5 -12.25,-4.25 -29.75,-5.5 -29.75,-5.5 0,0 -3.25,3.5 -22,8 -18.75,4.5 -27.5,5.75 -27.5,5.75 0,0 -18.5,-9 -31.5,-11.5 -13,-2.5 -24,-2 -24.75,-1.75 z"
         fill="#ceeeab" /></clipPath><clipPath
       clipPathUnits="userSpaceOnUse"
       id="k-6"><path
         id="path32101"
         d="m 9,12.25 c 0,0 7.5,13 11.75,27.75 C 25,54.75 27,65.5 27,65.5 c 0,0 -5.5,12.75 -8.25,24.75 -2.75,12 -5.75,23 -5.75,23 0,0 5.75,16 9.25,30 3.5,14 3.75,24.25 3.75,24.25 0,0 -4,10.25 -7.5,24.25 -3.5,14 -5,30.75 -5,30.75 0,0 9.25,-2 28.5,1.25 19.25,3.25 32.25,6 32.25,6 0,0 12.75,-2.75 24,-6.25 11.25,-3.5 16.25,-6.5 16.25,-6.5 0,0 5.5,0.5 22.5,6.25 17,5.75 29.25,8.5 29.25,8.5 0,0 13,-2.75 26,-5.75 13,-3 26.5,-8 26.5,-8 0,0 -0.75,-5 4.25,-24.5 5,-19.5 8.75,-28 8.75,-28 0,0 -0.5,-4.5 -3.75,-19.75 C 224.75,130.5 218,116 218,116 c 0,0 1.75,-10.5 6.75,-23.75 C 229.75,79 235,65.5 235,65.5 c 0,0 -4.75,-15.25 -7.5,-29.75 C 224.75,21.25 219.25,10 219.25,10 c 0,0 -24.25,9 -31.75,10.5 -7.5,1.5 -21,5.25 -21,5.25 0,0 -9.75,-4.25 -22,-8.5 -12.25,-4.25 -29.75,-5.5 -29.75,-5.5 0,0 -3.25,3.5 -22,8 -18.75,4.5 -27.5,5.75 -27.5,5.75 0,0 -18.5,-9 -31.5,-11.5 -13,-2.5 -24,-2 -24.75,-1.75 z"
         fill="#ceeeab" /></clipPath><clipPath
       clipPathUnits="userSpaceOnUse"
       id="i"><path
         id="path32104"
         d="m 9,12.25 c 0,0 7.5,13 11.75,27.75 C 25,54.75 27,65.5 27,65.5 c 0,0 -5.5,12.75 -8.25,24.75 -2.75,12 -5.75,23 -5.75,23 0,0 5.75,16 9.25,30 3.5,14 3.75,24.25 3.75,24.25 0,0 -4,10.25 -7.5,24.25 -3.5,14 -5,30.75 -5,30.75 0,0 9.25,-2 28.5,1.25 19.25,3.25 32.25,6 32.25,6 0,0 12.75,-2.75 24,-6.25 11.25,-3.5 16.25,-6.5 16.25,-6.5 0,0 5.5,0.5 22.5,6.25 17,5.75 29.25,8.5 29.25,8.5 0,0 13,-2.75 26,-5.75 13,-3 26.5,-8 26.5,-8 0,0 -0.75,-5 4.25,-24.5 5,-19.5 8.75,-28 8.75,-28 0,0 -0.5,-4.5 -3.75,-19.75 C 224.75,130.5 218,116 218,116 c 0,0 1.75,-10.5 6.75,-23.75 C 229.75,79 235,65.5 235,65.5 c 0,0 -4.75,-15.25 -7.5,-29.75 C 224.75,21.25 219.25,10 219.25,10 c 0,0 -24.25,9 -31.75,10.5 -7.5,1.5 -21,5.25 -21,5.25 0,0 -9.75,-4.25 -22,-8.5 -12.25,-4.25 -29.75,-5.5 -29.75,-5.5 0,0 -3.25,3.5 -22,8 -18.75,4.5 -27.5,5.75 -27.5,5.75 0,0 -18.5,-9 -31.5,-11.5 -13,-2.5 -24,-2 -24.75,-1.75 z"
         fill="#ceeeab" /></clipPath><clipPath
       clipPathUnits="userSpaceOnUse"
       id="m-9"><path
         id="path32107"
         d="m 9,12.25 c 0,0 7.5,13 11.75,27.75 C 25,54.75 27,65.5 27,65.5 c 0,0 -5.5,12.75 -8.25,24.75 -2.75,12 -5.75,23 -5.75,23 0,0 5.75,16 9.25,30 3.5,14 3.75,24.25 3.75,24.25 0,0 -4,10.25 -7.5,24.25 -3.5,14 -5,30.75 -5,30.75 0,0 9.25,-2 28.5,1.25 19.25,3.25 32.25,6 32.25,6 0,0 12.75,-2.75 24,-6.25 11.25,-3.5 16.25,-6.5 16.25,-6.5 0,0 5.5,0.5 22.5,6.25 17,5.75 29.25,8.5 29.25,8.5 0,0 13,-2.75 26,-5.75 13,-3 26.5,-8 26.5,-8 0,0 -0.75,-5 4.25,-24.5 5,-19.5 8.75,-28 8.75,-28 0,0 -0.5,-4.5 -3.75,-19.75 C 224.75,130.5 218,116 218,116 c 0,0 1.75,-10.5 6.75,-23.75 C 229.75,79 235,65.5 235,65.5 c 0,0 -4.75,-15.25 -7.5,-29.75 C 224.75,21.25 219.25,10 219.25,10 c 0,0 -24.25,9 -31.75,10.5 -7.5,1.5 -21,5.25 -21,5.25 0,0 -9.75,-4.25 -22,-8.5 -12.25,-4.25 -29.75,-5.5 -29.75,-5.5 0,0 -3.25,3.5 -22,8 -18.75,4.5 -27.5,5.75 -27.5,5.75 0,0 -18.5,-9 -31.5,-11.5 -13,-2.5 -24,-2 -24.75,-1.75 z"
         fill="#ceeeab" /></clipPath><clipPath
       clipPathUnits="userSpaceOnUse"
       id="n-2"><path
         id="path32110"
         d="m 9,12.25 c 0,0 7.5,13 11.75,27.75 C 25,54.75 27,65.5 27,65.5 c 0,0 -5.5,12.75 -8.25,24.75 -2.75,12 -5.75,23 -5.75,23 0,0 5.75,16 9.25,30 3.5,14 3.75,24.25 3.75,24.25 0,0 -4,10.25 -7.5,24.25 -3.5,14 -5,30.75 -5,30.75 0,0 9.25,-2 28.5,1.25 19.25,3.25 32.25,6 32.25,6 0,0 12.75,-2.75 24,-6.25 11.25,-3.5 16.25,-6.5 16.25,-6.5 0,0 5.5,0.5 22.5,6.25 17,5.75 29.25,8.5 29.25,8.5 0,0 13,-2.75 26,-5.75 13,-3 26.5,-8 26.5,-8 0,0 -0.75,-5 4.25,-24.5 5,-19.5 8.75,-28 8.75,-28 0,0 -0.5,-4.5 -3.75,-19.75 C 224.75,130.5 218,116 218,116 c 0,0 1.75,-10.5 6.75,-23.75 C 229.75,79 235,65.5 235,65.5 c 0,0 -4.75,-15.25 -7.5,-29.75 C 224.75,21.25 219.25,10 219.25,10 c 0,0 -24.25,9 -31.75,10.5 -7.5,1.5 -21,5.25 -21,5.25 0,0 -9.75,-4.25 -22,-8.5 -12.25,-4.25 -29.75,-5.5 -29.75,-5.5 0,0 -3.25,3.5 -22,8 -18.75,4.5 -27.5,5.75 -27.5,5.75 0,0 -18.5,-9 -31.5,-11.5 -13,-2.5 -24,-2 -24.75,-1.75 z"
         fill="#ceeeab" /></clipPath><clipPath
       clipPathUnits="userSpaceOnUse"
       id="o-7"><path
         id="path32113"
         d="m 9,12.25 c 0,0 7.5,13 11.75,27.75 C 25,54.75 27,65.5 27,65.5 c 0,0 -5.5,12.75 -8.25,24.75 -2.75,12 -5.75,23 -5.75,23 0,0 5.75,16 9.25,30 3.5,14 3.75,24.25 3.75,24.25 0,0 -4,10.25 -7.5,24.25 -3.5,14 -5,30.75 -5,30.75 0,0 9.25,-2 28.5,1.25 19.25,3.25 32.25,6 32.25,6 0,0 12.75,-2.75 24,-6.25 11.25,-3.5 16.25,-6.5 16.25,-6.5 0,0 5.5,0.5 22.5,6.25 17,5.75 29.25,8.5 29.25,8.5 0,0 13,-2.75 26,-5.75 13,-3 26.5,-8 26.5,-8 0,0 -0.75,-5 4.25,-24.5 5,-19.5 8.75,-28 8.75,-28 0,0 -0.5,-4.5 -3.75,-19.75 C 224.75,130.5 218,116 218,116 c 0,0 1.75,-10.5 6.75,-23.75 C 229.75,79 235,65.5 235,65.5 c 0,0 -4.75,-15.25 -7.5,-29.75 C 224.75,21.25 219.25,10 219.25,10 c 0,0 -24.25,9 -31.75,10.5 -7.5,1.5 -21,5.25 -21,5.25 0,0 -9.75,-4.25 -22,-8.5 -12.25,-4.25 -29.75,-5.5 -29.75,-5.5 0,0 -3.25,3.5 -22,8 -18.75,4.5 -27.5,5.75 -27.5,5.75 0,0 -18.5,-9 -31.5,-11.5 -13,-2.5 -24,-2 -24.75,-1.75 z"
         fill="#ceeeab" /></clipPath><clipPath
       clipPathUnits="userSpaceOnUse"
       id="l-1"><path
         style="fill:url(#d-7)"
         id="path32116"
         d="m 123.62,141.06 c 20.832,20.243 54.607,19.289 75.439,-2.132 20.832,-21.421 20.832,-55.196 0,-75.439 -20.832,-20.243 -54.607,-19.289 -75.439,2.132 -20.832,21.421 -20.832,55.196 0,75.439 z"
         fill="url(#d)" /></clipPath><clipPath
       clipPathUnits="userSpaceOnUse"
       id="G-8"><path
         id="path32119"
         opacity="0.03913"
         d="m 9,22.578 c 0,0 7.5,12.393 11.75,26.8 C 25,63.784 27,74.373 27,74.373 c 0,0 -5.5,13.195 -8.25,25.417 C 16,112.01 13,123.25 13,123.25 c 0,0 5.75,15.535 9.25,29.252 3.5,13.717 3.75,23.947 3.75,23.947 0,0 -4,10.574 -7.5,24.857 -3.5,14.283 -5,31.154 -5,31.154 0,0 9.25,-2.7481 28.5,-1.055 19.25,1.6931 32.25,3.3917 32.25,3.3917 0,0 12.75,-3.7812 24,-8.1911 11.25,-4.4099 16.25,-7.8143 16.25,-7.8143 0,0 5.5,0.0552 22.5,4.4302 17,4.3751 29.25,6.1343 29.25,6.1343 0,0 13,-3.8014 26,-7.8528 13,-4.0514 26.5,-10.143 26.5,-10.143 0,0 -0.75,-4.9393 4.25,-24.844 5,-19.904 8.75,-28.708 8.75,-28.708 0,0 -0.5145,-4.4553 -3.75,-19.447 -1.75,-8.1085 -2.25,-4.068 -2.25,-4.068 0,0 16.264,-26.155 16.5,-40.334 C 242.5,78.939 235,57.546 235,57.546 c 0,0 -4.75,-14.866 -7.5,-29.143 -2.75,-14.278 -8.25,-25.083 -8.25,-25.083 0,0 -24.25,10.961 -31.75,13.068 -7.5,2.1066 -21,6.9484 -21,6.9484 0,0 -9.75,-3.4614 -22,-6.7207 -12.25,-3.2592 -29.75,-3.0939 -29.75,-3.0939 0,0 -3.25,3.7629 -22,9.7793 -18.75,6.0165 -27.5,7.9741 -27.5,7.9741 0,0 -18.5,-7.5038 -31.5,-8.9524 -13,-1.4486 -24,-0.05894 -24.75,0.25172 z"
         fill="url(#e)" /></clipPath><radialGradient
       gradientUnits="userSpaceOnUse"
       gradientTransform="matrix(0.47537254,0.47537254,0.47537254,-0.47537254,-327.88358,45.67912)"
       r="47"
       cy="86"
       cx="128"
       id="J-9"><stop
         id="stop32122"
         stop-opacity="0"
         stop-color="#d0e9f2"
         offset="0" /><stop
         id="stop32124"
         stop-opacity="0"
         stop-color="#d0e9f2"
         offset=".83933" /><stop
         id="stop32126"
         stop-opacity=".28185"
         stop-color="#d0e9f2"
         offset=".94309" /><stop
         id="stop32128"
         stop-color="#d0e9f2"
         offset="1" /></radialGradient><radialGradient
       gradientUnits="userSpaceOnUse"
       gradientTransform="matrix(0.57340537,0,0,0.39684043,-330.67642,-11.219054)"
       r="38.417"
       cy="72.587997"
       cx="159.61"
       id="R-7"><stop
         id="stop32131"
         stop-color="#fff"
         offset="0" /><stop
         id="stop32133"
         stop-opacity=".9305"
         stop-color="#fff"
         offset=".5" /><stop
         id="stop32135"
         stop-opacity="0"
         stop-color="#fff"
         offset="1" /></radialGradient><radialGradient
       gradientUnits="userSpaceOnUse"
       gradientTransform="matrix(0.57340537,0,0,0.39684043,-330.47401,-10.610891)"
       r="38.417"
       cy="72.587997"
       cx="159.61"
       id="Q-7"><stop
         id="stop32138"
         stop-color="#fff"
         offset="0" /><stop
         id="stop32140"
         stop-opacity="0"
         stop-color="#fff"
         offset="1" /></radialGradient><radialGradient
       gradientUnits="userSpaceOnUse"
       gradientTransform="matrix(0.80254,0.77986,0.80254,-0.82522,-10.402,73.423)"
       r="47"
       cy="86"
       cx="128"
       id="d-7"><stop
         id="stop32143"
         stop-opacity="0"
         stop-color="#d0e9f2"
         offset="0" /><stop
         id="stop32145"
         stop-opacity="0"
         stop-color="#d0e9f2"
         offset=".83933" /><stop
         id="stop32147"
         stop-opacity=".28185"
         stop-color="#d0e9f2"
         offset=".94309" /><stop
         id="stop32149"
         stop-color="#d0e9f2"
         offset="1" /></radialGradient><filter
       height="1.096"
       width="1.0959994"
       y="-0.047999926"
       x="-0.047999725"
       id="H-6"><feGaussianBlur
         id="feGaussianBlur32152"
         stdDeviation="4.2868936" /></filter><filter
       height="1.1413265"
       width="1.141326"
       y="-0.070663318"
       x="-0.07066302"
       id="f-1"><feGaussianBlur
         id="feGaussianBlur32155"
         stdDeviation="6.3109704" /></filter><filter
       height="1.0973651"
       width="1.0946726"
       y="-0.048682593"
       x="-0.047336284"
       id="h-1"><feGaussianBlur
         id="feGaussianBlur32158"
         stdDeviation="4.4575" /></filter></defs><g
     transform="translate(355.37636,-441.08166)"
     id="layer1"
     inkscape:groupmode="layer"
     inkscape:label="Calque 1"><g
       transform="matrix(6.2563683,0,0,6.2563683,1275.4915,1132.8076)"
       id="g1785"><g
         transform="matrix(0.18441971,0,0,0.18441971,5.832052,-185.11456)"
         id="g7131"><path
           d="m -1117.9774,439.7998 a 296.98552,294.67971 40.451563 0 0 -52.7105,5.1235 l 135.1235,115.20917 60.04056,179.11689 -56.45826,66.21647 -0.031,-0.0266 -55.9821,65.6587 -186.3566,-30.96547 -135.0904,-115.18063 a 296.98552,294.67971 40.451563 0 0 104.7092,234.72912 296.98552,294.67971 40.451563 0 0 320.57379,42.62545 l 546.06116,465.5825 c 50.21968,42.8182 125.12076,36.8597 167.93893,-13.3599 42.81818,-50.2196 36.8598,-125.1205 -13.3599,-167.9389 L -829.58022,821.00833 A 296.98552,294.67971 40.451563 0 0 -922.35451,511.20484 296.98552,294.67971 40.451563 0 0 -1117.9774,439.7998 Z m 714.83343,57.87317 c -3.48794,0.028 -7.02425,1.55087 -9.84262,4.21115 l -114.80679,108.36721 c 0,0 0.28655,28.85852 0.50663,57.38713 l -179.90705,211.00535 54.86587,46.78021 179.67333,-210.7311 c 28.22214,-4.33543 56.80202,-8.7439 56.97876,-8.84596 l 89.71117,-129.76428 c 3.91816,-5.66747 3.84855,-13.06227 -1.39442,-17.53255 L -395.4534,500.4897 c -2.2938,-1.95574 -4.97772,-2.8385 -7.69057,-2.81673 z m -538.78359,587.35663 c -0.97033,1.1557 -1.93533,2.3148 -2.915,3.4642 -52.07225,61.0665 -114.03704,109.5326 -172.71124,135.0883 l -35.468,41.5989 c -6.0035,5.9036 -11.7692,12.0959 -17.2597,18.5352 -68.3097,80.1174 -81.0161,181.4462 -28.3812,226.3241 0.055,0.044 0.1115,0.089 0.166,0.1335 l -0.015,0.017 c 0.1364,0.1245 0.2736,0.2484 0.4118,0.3712 52.6353,44.8777 150.6811,16.3107 218.99064,-63.8068 5.49036,-6.4395 10.69296,-13.1123 15.5731,-19.9735 l 35.46743,-41.5983 c 15.95753,-61.9768 54.0178,-130.8251 106.08308,-191.8977 0.98694,-1.1571 1.98559,-2.3015 2.98009,-3.4502 z m 570.06182,244.9137 a 40.753573,40.753573 0 0 1 29.67331,9.6136 40.753573,40.753573 0 0 1 4.57038,57.4522 40.753573,40.753573 0 0 1 -57.45285,4.571 40.753573,40.753573 0 0 1 -4.57039,-57.4529 40.753573,40.753573 0 0 1 27.77955,-14.1839 z"
           style="fill:#ffffff;fill-opacity:1;stroke:#000000;stroke-width:71.0904;stroke-linecap:round;stroke-dasharray:none;stroke-opacity:1;paint-order:markers stroke fill"
           id="path5747" /></g></g></g></svg>
